<?xml version="1.0" standalone="no"?>
<!DOCTYPE svg PUBLIC "-//W3C//DTD SVG 1.1//EN" "http://www.w3.org/Graphics/SVG/1.1/DTD/svg11.dtd" >
<svg xmlns="http://www.w3.org/2000/svg">
<metadata>Generated by IcoMoon</metadata>
<defs>
<font id="icomoon" horiz-adv-x="1024">
<font-face units-per-em="1024" ascent="960" descent="-64" />
<missing-glyph horiz-adv-x="1024" />
<glyph unicode="&#x20;" horiz-adv-x="512" d="" />
<glyph unicode="&#xe900;" glyph-name="person-head" horiz-adv-x="1066" d="M0 275.607c72.928 90.137 166.679 160.593 274.1 204.493l4.562 1.649c51.667-88.356 146.081-146.768 254.137-146.768s202.47 58.412 253.387 145.382l0.75 1.386c111.994-45.528 205.75-115.988 277.655-204.856l1.008-1.287c-98.803-199.676-299.471-335.459-532.258-339.546l-0.541-0.007c-233.313 4.146-433.959 139.91-531.219 336.032l-1.58 3.522zM274.857 702.269c0 142.341 115.39 257.731 257.731 257.731s257.731-115.39 257.731-257.731c0-142.267-115.27-257.611-257.508-257.731h-0.012c-0.047 0-0.103 0-0.159 0-142.352 0-257.754 115.384-257.784 257.728v0.003z" />
<glyph unicode="&#xe901;" glyph-name="delivery-truck" horiz-adv-x="1457" d="M51.1 277.894v619.711c0 34.46 27.935 62.395 62.395 62.395v0h619.602c34.46 0 62.395-27.935 62.395-62.395v0-619.711c0-11.487-9.312-20.798-20.798-20.798v0h-702.795c-11.487 0-20.798 9.312-20.798 20.798v0zM551.451 65.514c0-71.438-57.912-129.351-129.351-129.351s-129.351 57.912-129.351 129.351c0 71.438 57.912 129.351 129.351 129.351v0c71.439 0 129.351-57.912 129.351-129.351 0-0.057 0-0.115 0-0.172v0.009zM486.776 65.514c0 35.719-28.956 64.675-64.675 64.675s-64.675-28.956-64.675-64.675c0-35.719 28.956-64.675 64.675-64.675v0c0 0 0 0 0 0 35.662 0 64.583 28.863 64.675 64.504v0.009zM310.67 194.865h-289.872c-11.487 0-20.798-9.312-20.798-20.798v0-63.101c0-11.487 9.312-20.798 20.798-20.798v0h232.364c6.336 42.061 27.229 78.366 57.29 104.351l0.217 0.184zM1228.398 65.514c0-71.438-57.912-129.351-129.351-129.351s-129.351 57.912-129.351 129.351c0 71.438 57.912 129.351 129.351 129.351v0c71.415-0.031 129.297-57.931 129.297-129.351 0-0.057 0-0.115 0-0.172v0.009zM1163.723 65.514c0 35.719-28.956 64.675-64.675 64.675s-64.675-28.956-64.675-64.675c0-35.719 28.956-64.675 64.675-64.675v0c35.615 0.062 64.474 28.901 64.567 64.504v0.009zM1456.961 174.121v-63.101c0-11.487-9.312-20.798-20.798-20.798v0h-168.341c-12.474 83.082-83.351 146.058-168.938 146.058s-156.464-62.976-168.822-145.118l-0.116-0.94h-338.908c-6.314 42.101-27.211 78.446-57.291 104.46l-0.216 0.183h321.368v594.568c0 22.973 18.623 41.596 41.596 41.596v0h196.307c57.12-0.010 107.511-28.812 137.453-72.682l0.37-0.574 126.527-187.401c17.82-26.092 28.455-58.324 28.455-93.039 0-0.013 0-0.026 0-0.039v0.002-282.378h50.611c0 0 0.001 0 0.001 0 11.487 0 20.798-9.312 20.798-20.798 0-0.076 0-0.153-0.001-0.229v0.012zM1246.101 565.703l-101.167 143.796c-3.806 5.374-9.995 8.842-16.995 8.851h-157.862c-11.487 0-20.798-9.312-20.798-20.798v0-143.796c0-11.487 9.312-20.798 20.798-20.798v0h259.027c11.475 0.016 20.77 9.321 20.77 20.798 0 4.474-1.413 8.619-3.817 12.011l0.044-0.065z" />
<glyph unicode="&#xe902;" glyph-name="papers" horiz-adv-x="983" d="M737.28 837.12h-491.52c-45.187-0.139-81.781-36.733-81.92-81.907v-655.373c0.139-45.187 36.733-81.781 81.907-81.92h491.533c45.187 0.139 81.781 36.733 81.92 81.907v655.373c-0.139 45.187-36.733 81.781-81.907 81.92h-0.013zM368.64 755.2v0zM737.28 99.84h-491.52v655.36h491.52zM334.397 391.598h314.245c10.847 0 19.64 8.793 19.64 19.64s-8.793 19.64-19.64 19.64h-314.245c-10.847 0-19.64-8.793-19.64-19.64s8.793-19.64 19.64-19.64v0zM334.397 489.902h314.245c10.847 0 19.64 8.793 19.64 19.64s-8.793 19.64-19.64 19.64h-314.245c-10.847 0-19.64-8.793-19.64-19.64s8.793-19.64 19.64-19.64v0zM314.778 607.662c0.046-10.817 8.803-19.574 19.615-19.62h314.249c10.847 0 19.64 8.793 19.64 19.64s-8.793 19.64-19.64 19.64h-314.245c-10.831-0.046-19.597-8.826-19.62-19.659v-0.002zM314.778 198.062c0.046-10.817 8.803-19.574 19.615-19.62h314.249c10.847 0 19.64 8.793 19.64 19.64s-8.793 19.64-19.64 19.64h-314.245c-10.831-0.046-19.597-8.826-19.62-19.659v-0.002zM901.12 140.8h-81.92v81.92h81.92v655.36h-491.52v-81.92h-81.92v81.92c0 45.243 36.677 81.92 81.92 81.92v0h491.52c45.243 0 81.92-36.677 81.92-81.92v0-655.36c0-45.243-36.677-81.92-81.92-81.92v0z" />
<glyph unicode="&#xe903;" glyph-name="home" horiz-adv-x="1131" d="M442.527-2.505v307.422h245.927v-307.422c0.092-33.926 27.569-61.403 61.486-61.495h184.44c33.926 0.092 61.403 27.569 61.495 61.486v430.367h104.547c0.068-0.001 0.149-0.001 0.23-0.001 16.847 0 30.504 13.657 30.504 30.504 0 9.154-4.032 17.366-10.417 22.957l-0.035 0.030-513.812 462.972c-10.896 9.722-25.347 15.663-41.186 15.663s-30.29-5.941-41.247-15.716l0.061 0.054-513.812-462.972c-6.315-5.633-10.273-13.793-10.273-22.878 0-16.886 13.673-30.579 30.552-30.612h104.118v-430.358c0.092-33.926 27.569-61.403 61.486-61.495h184.44c33.926 0.092 61.403 27.569 61.495 61.486v0.009z" />
<glyph unicode="&#xe904;" glyph-name="world" horiz-adv-x="993" d="M992.792 452.224c0.032 2.124 0.051 4.631 0.051 7.142 0 264.786-205.44 481.589-465.621 499.709l-1.573 0.088c0 11.171-384.759-159.112-384.759-159.112s-5.865-5.795-8.587-8.937c-82.239-91.53-132.532-213.21-132.532-346.635 0-145.739 60.004-277.464 156.655-371.816l0.104-0.101c86.856-84.506 205.604-136.617 336.524-136.617 143.089 0 271.639 62.25 360.045 161.145l0.41 0.467q6.982 7.68 13.963 15.709c77.877 90.028 125.323 208.253 125.323 337.559 0 0.493-0.001 0.985-0.002 1.477v-0.077zM799.54 119.129c-4.538-4.329-9.286-8.448-13.963-12.567-6.563-5.795-13.265-11.52-20.107-16.896-5.027-3.91-10.193-7.61-15.429-11.31-6.982-4.957-13.963-9.774-21.294-14.312-5.446-3.351-10.891-6.982-16.477-9.774-7.401-4.259-14.941-8.029-22.621-11.939-5.655-2.653-11.31-5.585-17.105-8.029-7.819-3.491-15.988-6.563-24.087-9.565-3.281-1.257-6.563-2.444-9.914-3.561 30.665 38.862 55.639 84.014 72.61 132.907l0.977 3.235c35.659-9.597 66.244-20.964 95.455-34.763l-3.437 1.46c-1.536-1.606-3.002-3.351-4.608-4.817zM326.951 34.162c-5.795 2.513-11.52 5.376-17.245 8.029-7.61 3.77-15.080 7.68-22.481 11.869q-8.378 4.748-16.616 9.914c-6.982 4.468-13.963 9.216-20.945 13.963-5.166 3.77-10.542 7.54-15.569 11.59-6.982 5.376-13.265 10.891-19.758 16.547-4.887 4.259-9.774 8.448-14.452 12.916-1.536 1.466-2.932 3.142-4.468 4.678 25.843 12.4 56.497 23.814 88.271 32.518l3.957 0.924c17.948-52.129 42.922-97.28 74.331-137.122l-0.744 0.979-9.914 3.561c-8.169 3.072-16.197 6.214-24.087 9.635zM158.833 740.078c31.957-16.59 69.312-31.329 108.275-42.215l4.2-1.002c-17.831-64.868-28.772-139.609-30.218-216.673l-0.013-0.875h-181.174c5.743 99.428 42.084 189.393 99.653 261.705l-0.722-0.94zM672.683 870.635c5.795-2.513 11.52-5.376 17.245-8.029q11.38-5.585 22.481-11.869c5.585-3.212 11.171-6.493 16.616-9.914 6.982-4.468 13.963-9.216 20.945-13.963 5.166-3.77 10.542-7.54 15.569-11.59 6.982-5.376 13.265-10.891 19.758-16.547 4.887-4.259 9.774-8.448 14.452-12.916 1.536-1.466 2.932-3.142 4.468-4.678-25.8-12.37-56.408-23.76-88.132-32.449l-3.956-0.924c-17.948 52.129-42.922 97.28-74.331 137.122l0.744-0.979 9.914-3.561c8.169-3.072 16.197-6.214 24.087-9.635zM758.767 479.313c-1.458 77.939-12.398 152.68-31.714 223.978l1.484-6.429c43.152 11.865 80.508 26.605 115.809 44.776l-3.335-1.56c56.838-71.376 93.177-161.338 98.873-259.522l0.058-1.243zM200.234 785.668c4.538 4.329 9.355 8.448 13.963 12.567 6.563 5.795 13.265 11.52 20.107 16.826 5.027 3.91 10.193 7.68 15.429 11.38 6.982 4.957 13.963 9.774 20.945 13.963 5.446 3.421 10.891 6.982 16.477 9.844 7.401 4.259 14.941 8.029 22.621 11.939 5.655 2.653 11.31 5.585 17.105 8.029 7.819 3.491 15.988 6.563 24.087 9.565 3.281 1.257 6.563 2.444 9.914 3.561-30.55-38.907-55.413-84.111-72.267-133.043l-0.97-3.239c-35.658 9.596-66.244 20.963-95.455 34.762l3.437-1.46c1.536 1.606 3.002 3.351 4.608 4.817zM526.068 903.239c67.044-33.157 116.49-93.284 134.588-165.82l0.367-1.74c-39.851-8.134-86.313-13.484-133.774-14.844l-1.182-0.027zM474.194 903.239v-182.361c-48.647 1.393-95.108 6.742-140.249 15.752l5.293-0.881c18.465 74.276 67.911 134.403 133.482 166.899l1.474 0.661zM322.553 684.224c44.824-9.595 96.919-15.805 150.209-17.22l1.154-0.024v-188.016h-180.965c1.721 73.699 12.417 144.157 31.036 211.321l-1.434-6.060zM473.915 425.484v-188.086c-54.454-1.449-106.551-7.633-157.051-18.167l5.689 0.993c-17.206 61.096-27.925 131.549-29.653 204.23l-0.019 1.031zM473.915 183.849v-182.361c-65.853 34.65-114.695 94.135-134.512 165.683l-0.444 1.877c38.213 9.441 82.082 14.856 127.216 14.856 2.746 0 5.487-0.020 8.223-0.060l-0.414 0.005zM677.151 220.154c-44.81 9.536-96.906 15.72-150.188 17.15l-1.174 0.025v188.156h181.034c-1.747-73.711-12.466-144.165-31.108-211.323l1.436 6.062zM660.744 168.978c-18.502-74.258-67.935-134.372-133.482-166.898l-1.474-0.662v182.431c48.691-1.385 95.202-6.735 140.39-15.752l-5.295 0.882zM525.789 478.964v188.016c54.461 1.43 106.581 7.64 157.087 18.237l-5.654-0.993c17.209-61.097 27.928-131.551 29.653-204.233l0.019-1.028zM241.007 425.484c1.458-77.939 12.399-152.681 31.714-223.979l-1.484 6.43c-43.154-11.869-80.51-26.609-115.813-44.778l3.338 1.561c-56.838 71.376-93.177 161.338-98.873 259.522l-0.058 1.243zM728.466 207.936c17.832 64.868 28.773 139.609 30.218 216.673l0.013 0.875h181.174c-5.743-99.428-42.084-189.393-99.653-261.705l0.722 0.94c-31.963 16.605-69.319 31.345-108.287 42.219l-4.188 0.998zM525.998 959.162c-1.996 0.027-4.352 0.043-6.713 0.043-148.172 0-282.118-60.911-378.164-159.060l-0.092-0.095z" />
<glyph unicode="&#xe905;" glyph-name="facebook" horiz-adv-x="450" d="M255.054-64h-187.538v513.892h-67.516v191.41h63.774v89.876c0 142.557 90.006 228.822 251.313 228.822h131.246v-191.41h-127.505c-63.774 0-63.774-18.749-63.774-63.774v-63.644h195.064l-15.095-191.279h-179.969z" />
<glyph unicode="&#xe906;" glyph-name="twitter" horiz-adv-x="1170" d="M1169.646 840.021c-39.696-19.386-85.758-34.313-134.128-42.435l-2.992-0.415c51.155 34.182 89.123 84.627 106.758 143.832l0.475 1.857c-44.281-28.553-95.825-50.724-150.944-63.6l-3.316-0.653c-42.142 49.912-104.752 81.395-174.716 81.395-0.363 0-0.726-0.001-1.089-0.003h0.056c-133.579-4.886-240.013-114.352-240.013-248.677 0-2.946 0.051-5.881 0.153-8.802l-0.012 0.424c-0.105-2.88-0.165-6.263-0.165-9.659 0-17.791 1.643-35.198 4.786-52.077l-0.27 1.747c-202.346 14.143-378.291 116.252-491.446 267.947l-1.26 1.767c-20.889-37.073-33.502-81.256-34.277-128.318l-0.003-0.231c-0.004-0.537-0.006-1.173-0.006-1.809 0-86.672 41.792-163.583 106.323-211.681l0.699-0.498c-39.561 0.831-76.377 11.856-108.146 30.541l1.044-0.568v-4.35c-0.065-2.144-0.102-4.666-0.102-7.196 0-118.355 81.337-217.713 191.162-245.226l1.742-0.37c-18.978-4.709-41.023-7.833-63.649-8.682l-0.604-0.018c-2.050-0.103-4.452-0.162-6.867-0.162-12.784 0-25.183 1.646-36.997 4.738l1.014-0.225c26.081-101.674 115.224-176.249 222.372-179.958l0.403-0.011c-78.446-69.090-182.053-111.257-295.508-111.257-1.561 0-3.121 0.008-4.678 0.024l0.237-0.002c-2.778-0.113-6.038-0.178-9.313-0.178-16.403 0-32.428 1.617-47.925 4.699l1.556-0.258c100.872-72.351 226.812-115.697 362.875-115.697 1.965 0 3.928 0.009 5.889 0.027l-0.299-0.002c441.287 0 685.509 394.174 685.509 736.929v34.28c45.879 37.024 84.368 80.972 114.426 130.595l1.247 2.218z" />
<glyph unicode="&#xe907;" glyph-name="place" d="M511.972 874.653c-0.066 0-0.144 0-0.222 0-164.822 0-298.437-133.615-298.437-298.437 0-0.078 0-0.156 0-0.235v0.012c0-177.807 188.586-423.236 266.21-516.751 7.823-9.421 19.538-15.376 32.644-15.376s24.822 5.955 32.588 15.307l0.056 0.069c77.235 93.46 265.821 338.944 265.821 516.751 0 0.066 0 0.144 0 0.222 0 164.822-133.615 298.437-298.437 298.437-0.078 0-0.156 0-0.235 0h0.012zM511.972 469.309c-58.92 0-106.684 47.764-106.684 106.684s47.764 106.684 106.684 106.684c58.92 0 106.684-47.764 106.684-106.684v0c0-58.92-47.764-106.684-106.684-106.684v0z" />
<glyph unicode="&#xe908;" glyph-name="message" d="M853.361 874.653h-682.667c-46.931-0.189-84.903-38.278-84.903-85.235 0-0.039 0-0.079 0-0.118v0.006l-0.445-767.958 170.639 170.639h597.319c47.085 0.126 85.221 38.262 85.347 85.335v511.984c-0.126 47.066-38.23 85.19-85.276 85.347h-0.015zM298.66 575.993h426.681c23.543-0.063 42.611-19.131 42.674-42.668v-0.006c-0.063-23.543-19.131-42.611-42.668-42.674h-426.687c-23.543 0.063-42.611 19.131-42.674 42.668v0.006c0.063 23.543 19.131 42.611 42.668 42.674h0.006zM554.646 362.681h-255.986c-23.543 0.063-42.611 19.131-42.674 42.668v0.006c0.063 23.543 19.131 42.611 42.668 42.674h255.992c23.543-0.063 42.611-19.131 42.674-42.668v-0.006c-0.063-23.523-19.099-42.579-42.609-42.674h-0.009zM725.285 618.667h-426.625c-23.543 0.063-42.611 19.131-42.674 42.668v0.006c0.063 23.543 19.131 42.611 42.668 42.674h426.687c23.543-0.063 42.611-19.131 42.674-42.668v-0.006c-0.063-23.543-19.131-42.611-42.668-42.674h-0.006z" />
<glyph unicode="&#xe909;" glyph-name="phone" d="M820.522 308.95l-108.351 12.391c-2.958 0.365-6.382 0.573-9.854 0.573-23.474 0-44.725-9.52-60.101-24.91l-78.514-78.514c-121.671 62.791-218.367 159.486-279.472 277.577l-1.685 3.58 78.846 78.957c15.405 15.379 24.934 36.639 24.934 60.125 0 3.543-0.217 7.035-0.638 10.464l0.041-0.411-12.391 107.295c-5.125 42.718-41.147 75.512-84.828 75.512-0.026 0-0.052 0-0.079 0h-73.786c-0.222 0.002-0.484 0.003-0.746 0.003-46.768 0-84.68-37.913-84.68-84.68 0-1.291 0.029-2.575 0.086-3.852l-0.006 0.181c23.684-364.465 313.423-654.205 675.738-677.776l2.15-0.112c1.079-0.049 2.344-0.077 3.615-0.077 46.768 0 84.68 37.913 84.68 84.68 0 0.262-0.001 0.523-0.004 0.784v-0.040 73.734c0.001 0.146 0.001 0.319 0.001 0.492 0 43.32-32.571 79.032-74.56 83.983l-0.398 0.038z" />
<glyph unicode="&#xe90a;" glyph-name="check" horiz-adv-x="1367" d="M422.92 129.962l-285.057 285.057c-14.527 14.721-34.699 23.839-57.001 23.839s-42.474-9.118-56.992-23.83l-0.009-0.009c-14.721-14.527-23.839-34.699-23.839-57.001s9.118-42.474 23.83-56.992l341.166-341.166c14.687-14.717 34.993-23.821 57.425-23.821s42.738 9.105 57.424 23.82l863.126 862.384c14.721 14.527 23.839 34.699 23.839 57.001s-9.118 42.474-23.83 56.992l-0.009 0.009c-14.527 14.721-34.699 23.839-57.001 23.839s-42.474-9.118-56.992-23.83l-0.009-0.009z" />
<glyph unicode="&#xe90c;" glyph-name="cross" d="M22.551 67.318l380.709 380.709-380.709 380.709c-13.931 13.912-22.549 33.141-22.549 54.383s8.618 40.471 22.548 54.382l0.001 0.001c13.924 13.906 33.149 22.505 54.383 22.505s40.46-8.6 54.384-22.506l380.708-380.708 380.709 380.709c13.912 13.931 33.141 22.549 54.383 22.549s40.471-8.618 54.382-22.548l0.001-0.001c13.931-13.912 22.549-33.141 22.549-54.383s-8.618-40.471-22.548-54.382l-380.71-380.71 380.709-380.709c13.934-13.92 22.554-33.159 22.554-54.41s-8.619-40.49-22.553-54.409l-0.001-0.001c-13.918-13.918-33.145-22.527-54.383-22.527s-40.466 8.609-54.383 22.527l-380.709 380.709-380.656-380.656c-13.912-13.931-33.141-22.549-54.383-22.549s-40.471 8.618-54.382 22.548l-0.001 0.001c-13.931 13.872-22.551 33.067-22.551 54.275 0 0.029 0 0.057 0 0.086v-0.004c0 0.043 0 0.093 0 0.144 0 21.196 8.598 40.384 22.497 54.265l0.001 0.001z" />
<glyph unicode="&#xe90d;" glyph-name="person" horiz-adv-x="433" d="M300.913 873.806c0-47.604-38.59-86.194-86.194-86.194s-86.194 38.59-86.194 86.194c0 47.604 38.59 86.194 86.194 86.194s86.194-38.59 86.194-86.194zM244.731 746.52c-9.349 1.979-20.091 3.113-31.098 3.113-12.349 0-24.364-1.426-35.891-4.124l1.061 0.209c-143.373-16.792-189.836-182.643-176.689-309.127 5.711-54.676 91.88-55.259 86.145 0-1.623 12.261-2.549 26.437-2.549 40.83 0 44.8 8.974 87.504 25.223 126.412l-0.803-2.169v-180.237c0-2.114 0.219-4.107 0.316-6.148 0-0.972-0.292-1.798-0.292-2.795 0-143.033-0.243-285.993-6.148-428.904-2.624-63.522 95.89-63.181 98.49 0 4.617 112.001 5.784 224.075 6.051 336.174 2.092-0.137 4.536-0.215 6.999-0.215s4.906 0.078 7.33 0.232l-0.331-0.017c0.292-112.098 1.409-224.148 6.002-336.125 2.624-63.181 101.139-63.522 98.49 0-5.905 142.911-6.124 285.896-6.124 428.904-0.018 4.389-0.558 8.643-1.559 12.715l0.077-0.37c-0.146 62.088-2.43 124.249-1.774 186.312 29.331-49.67 32.004-125.415 26.925-174.502-5.784-55.211 80.435-54.652 86.145 0 13.317 129.012-35.454 299.188-185.996 309.832z" />
<glyph unicode="&#xe90e;" glyph-name="car" horiz-adv-x="2560" d="M2523.032 703.627l-289.775 41.365c-45.503 28.595-99.356 57.646-155.099 83.294l-9.089 3.749c-174.101 80.82-377.902 127.966-592.715 127.966-0.582 0-1.164 0-1.745-0.001h-50.233c-253.869-0.193-492.422-65.593-699.867-180.354l7.449 3.78-146.27-79.799c-179.729-2.095-347.618-50.903-492.659-134.814l4.853 2.59c-58.809-34.179-97.749-96.833-97.882-168.592v-253.351c0-0.016 0-0.036 0-0.055 0-23.548 19.089-42.637 42.637-42.637 0.019 0 0.039 0 0.058 0h143.225c35.992-100.052 130.070-170.307 240.557-170.307s204.565 70.255 239.998 168.529l0.56 1.778h1140.021c35.992-100.052 130.070-170.307 240.557-170.307s204.565 70.255 239.998 168.529l0.56 1.778h15.318c0.007 0 0.016 0 0.024 0 5.707 0 11.154 1.117 16.133 3.145l-0.286-0.103 138.251 55.301c60.209 24.312 101.92 82.275 101.92 149.98 0 0.193 0 0.385-0.001 0.578v-0.030 345.739c0 0.003 0 0.006 0 0.009 0 21.393-15.735 39.111-36.263 42.211l-0.236 0.029zM593.817 157.7c-16.397-78.5-85.025-136.621-167.229-136.621-94.252 0-170.657 76.406-170.657 170.657s76.406 170.657 170.657 170.657c94.222 0 170.61-76.358 170.657-170.569v-0.005c0-0.025 0-0.054 0-0.084 0-12.048-1.248-23.804-3.623-35.147l0.194 1.11zM1365.149 191.82h-682.574c0.018 1.119 0.028 2.44 0.028 3.762 0 141.377-114.609 255.986-255.986 255.986s-255.986-114.609-255.986-255.986c0-1.323 0.010-2.644 0.030-3.962l-0.002 0.199h-85.329v210.972c0.051 40.267 21.906 75.418 54.391 94.284l0.522 0.28c131.279 76.254 288.878 121.279 456.99 121.329h767.917zM1365.149 703.737h-600.564l8.24 4.479c171.181 94.945 373.761 154.735 589.378 164.469l2.946 0.106zM1450.478 874.395h24.166c0.449 0.001 0.982 0.001 1.515 0.001 180.255 0 352.26-35.322 509.471-99.422l-9.023 3.254-74.269-74.213h-451.861zM2214.897 157.7c-16.397-78.5-85.025-136.621-167.229-136.621-94.252 0-170.657 76.406-170.657 170.657s76.406 170.657 170.657 170.657c94.222 0 170.61-76.358 170.657-170.569v-0.005c0-0.025 0-0.054 0-0.084 0-12.048-1.248-23.804-3.623-35.147l0.194 1.11zM2474.312 575.772h-127.965v-85.052h127.965v-174.916c0-0.079 0-0.173 0-0.267 0-32.063-19.759-59.512-47.765-70.833l-0.512-0.183-122.38-49.162c0 3.926-0.498 7.797-0.774 11.724s-0.332 8.516-0.774 12.774-1.272 8.516-1.936 12.774-1.217 8.516-2.046 12.387-2.101 8.184-3.207 12.277-1.936 8.129-3.263 12.111-2.82 7.742-4.258 11.668-2.765 7.908-4.258 11.724-3.484 7.3-5.53 11.060-3.539 7.576-5.53 11.060-4.258 6.802-6.194 10.175-4.258 7.3-6.691 11.060-4.701 6.249-7.023 9.401-4.977 6.857-7.742 10.175-5.53 5.862-7.908 8.516-5.53 6.304-8.516 9.29-5.862 5.53-8.793 7.963-6.083 5.53-9.346 8.516-6.525 4.922-9.733 7.3-6.47 5.032-9.899 7.3-7.244 4.258-11.060 6.636-6.691 4.258-10.12 6.083-7.742 3.76-11.668 5.53-6.968 3.539-10.618 5.088-8.516 3.152-12.774 4.701-7.023 2.765-10.673 3.871c-4.866 1.493-9.843 2.544-14.821 3.816-3.263 0.774-6.36 1.77-9.622 2.489-5.254 1.051-10.618 1.659-15.927 2.433-3.152 0.442-6.194 1.106-9.346 1.383-7.804 0.839-16.864 1.32-26.036 1.327h-0.010c-141.197-0.22-255.6-114.623-255.82-255.799v-0.021h-341.26v426.588h469.28c0.001 0 0.002 0 0.003 0 11.771 0 22.427 4.777 30.135 12.497l110.602 110.602c53.88-25.733 98.195-50.376 140.914-77.318l-5.649 3.326c4.746-3.016 10.347-5.16 16.356-6.054l0.234-0.029 262.014-37.383z" />
<glyph unicode="&#xe90f;" glyph-name="phone-iphone" d="M661.333 917.333h-341.333c-58.91 0-106.667-47.756-106.667-106.667v0-725.333c0-58.91 47.756-106.667 106.667-106.667v0h341.333c58.91 0 106.667 47.756 106.667 106.667v0 725.333c0 58.91-47.756 106.667-106.667 106.667v0zM490.667 21.333c-35.346 0-64 28.654-64 64s28.654 64 64 64c35.346 0 64-28.654 64-64v0c0-35.346-28.654-64-64-64v0zM682.667 192h-384v597.333h384z" />
<glyph unicode="&#xe910;" glyph-name="mail" d="M938.667 704c-0.145 47.070-38.264 85.188-85.319 85.333h-682.681c-47.070-0.145-85.188-38.264-85.333-85.319v-512.014c0.145-47.070 38.264-85.188 85.319-85.333h682.681c47.070 0.145 85.188 38.264 85.333 85.319v0.014zM853.333 704l-341.333-212.907-341.333 212.907zM853.333 192h-682.667v426.667l341.333-213.333 341.333 213.333z" />
<glyph unicode="&#xe911;" glyph-name="sms" d="M853.333 874.667h-682.667c-47.070-0.145-85.188-38.264-85.333-85.319v-768.014l170.667 170.667h597.333c47.070 0.145 85.188 38.264 85.333 85.319v512.014c-0.145 47.070-38.264 85.188-85.319 85.333h-0.014zM853.333 277.333h-632.747l-49.92-49.92v561.92h682.667zM298.667 576h85.333v-85.333h-85.333zM640 576h85.333v-85.333h-85.333zM469.333 576h85.333v-85.333h-85.333z" />
<glyph unicode="&#xe97a;" glyph-name="spinner" d="M384 832c0 70.692 57.308 128 128 128s128-57.308 128-128c0-70.692-57.308-128-128-128s-128 57.308-128 128zM655.53 719.53c0 70.692 57.308 128 128 128s128-57.308 128-128c0-70.692-57.308-128-128-128s-128 57.308-128 128zM832 448c0 35.346 28.654 64 64 64s64-28.654 64-64c0-35.346-28.654-64-64-64s-64 28.654-64 64zM719.53 176.47c0 35.346 28.654 64 64 64s64-28.654 64-64c0-35.346-28.654-64-64-64s-64 28.654-64 64zM448.002 64c0 0 0 0 0 0 0 35.346 28.654 64 64 64s64-28.654 64-64c0 0 0 0 0 0 0-35.346-28.654-64-64-64s-64 28.654-64 64zM176.472 176.47c0 0 0 0 0 0 0 35.346 28.654 64 64 64s64-28.654 64-64c0 0 0 0 0 0 0-35.346-28.654-64-64-64s-64 28.654-64 64zM144.472 719.53c0 0 0 0 0 0 0 53.019 42.981 96 96 96s96-42.981 96-96c0 0 0 0 0 0 0-53.019-42.981-96-96-96s-96 42.981-96 96zM56 448c0 39.765 32.235 72 72 72s72-32.235 72-72c0-39.765-32.235-72-72-72s-72 32.235-72 72z" />
<glyph unicode="&#xe9ad;" glyph-name="bin2" d="M192-64h640l64 704h-768zM640 832v128h-256v-128h-320v-192l64 64h768l64-64v192h-320zM576 832h-128v64h128v-64z" />
<glyph unicode="&#xea0a;" glyph-name="plus" d="M992 576h-352v352c0 17.672-14.328 32-32 32h-192c-17.672 0-32-14.328-32-32v-352h-352c-17.672 0-32-14.328-32-32v-192c0-17.672 14.328-32 32-32h352v-352c0-17.672 14.328-32 32-32h192c17.672 0 32 14.328 32 32v352h352c17.672 0 32 14.328 32 32v192c0 17.672-14.328 32-32 32z" />
<glyph unicode="&#xea0b;" glyph-name="minus" d="M0 544v-192c0-17.672 14.328-32 32-32h960c17.672 0 32 14.328 32 32v192c0 17.672-14.328 32-32 32h-960c-17.672 0-32-14.328-32-32z" />
<glyph unicode="&#xea34;" glyph-name="arrow-right" d="M992 448l-480 480v-288h-512v-384h512v-288z" />
<glyph unicode="&#xea38;" glyph-name="arrow-left" d="M32 448l480-480v288h512v384h-512v288z" />
<glyph unicode="&#xea92;" glyph-name="instagram" d="M512 867.8c136.8 0 153-0.6 206.8-3 50-2.2 77-10.6 95-17.6 23.8-9.2 41-20.4 58.8-38.2 18-18 29-35 38.4-58.8 7-18 15.4-45.2 17.6-95 2.4-54 3-70.2 3-206.8s-0.6-153-3-206.8c-2.2-50-10.6-77-17.6-95-9.2-23.8-20.4-41-38.2-58.8-18-18-35-29-58.8-38.4-18-7-45.2-15.4-95-17.6-54-2.4-70.2-3-206.8-3s-153 0.6-206.8 3c-50 2.2-77 10.6-95 17.6-23.8 9.2-41 20.4-58.8 38.2-18 18-29 35-38.4 58.8-7 18-15.4 45.2-17.6 95-2.4 54-3 70.2-3 206.8s0.6 153 3 206.8c2.2 50 10.6 77 17.6 95 9.2 23.8 20.4 41 38.2 58.8 18 18 35 29 58.8 38.4 18 7 45.2 15.4 95 17.6 53.8 2.4 70 3 206.8 3zM512 960c-139 0-156.4-0.6-211-3-54.4-2.4-91.8-11.2-124.2-23.8-33.8-13.2-62.4-30.6-90.8-59.2-28.6-28.4-46-57-59.2-90.6-12.6-32.6-21.4-69.8-23.8-124.2-2.4-54.8-3-72.2-3-211.2s0.6-156.4 3-211c2.4-54.4 11.2-91.8 23.8-124.2 13.2-33.8 30.6-62.4 59.2-90.8 28.4-28.4 57-46 90.6-59 32.6-12.6 69.8-21.4 124.2-23.8 54.6-2.4 72-3 211-3s156.4 0.6 211 3c54.4 2.4 91.8 11.2 124.2 23.8 33.6 13 62.2 30.6 90.6 59s46 57 59 90.6c12.6 32.6 21.4 69.8 23.8 124.2 2.4 54.6 3 72 3 211s-0.6 156.4-3 211c-2.4 54.4-11.2 91.8-23.8 124.2-12.6 34-30 62.6-58.6 91-28.4 28.4-57 46-90.6 59-32.6 12.6-69.8 21.4-124.2 23.8-54.8 2.6-72.2 3.2-211.2 3.2v0zM512 711c-145.2 0-263-117.8-263-263s117.8-263 263-263 263 117.8 263 263c0 145.2-117.8 263-263 263zM512 277.4c-94.2 0-170.6 76.4-170.6 170.6s76.4 170.6 170.6 170.6c94.2 0 170.6-76.4 170.6-170.6s-76.4-170.6-170.6-170.6zM846.8 721.4c0-33.91-27.49-61.4-61.4-61.4s-61.4 27.49-61.4 61.4c0 33.91 27.49 61.4 61.4 61.4s61.4-27.49 61.4-61.4z" />
<glyph unicode="&#xea95;" glyph-name="telegram" d="M512 960c-282.8 0-512-229.2-512-512s229.2-512 512-512 512 229.2 512 512-229.2 512-512 512zM763.6 609l-84-395.8c-5.8-28.2-22.8-34.8-46.4-21.8l-128 94.6-61.4-59.8c-7.2-7-12.8-12.8-25.6-12.8-16.6 0-13.8 6.2-19.4 22l-43.6 143.2-126.6 39.4c-27.4 8.4-27.6 27.2 6.2 40.6l493.2 190.4c22.4 10.2 44.2-5.4 35.6-40z" />
</font>
</defs>
</svg>
